<svg xmlns="http://www.w3.org/2000/svg" viewBox="0 0 60 38"><rect width="60" height="38" fill="#de2910"/><polygon points="10,7 11.2,10.7 15,10.7 11.9,13 13.1,16.7 10,14.4 6.9,16.7 8.1,13 5,10.7 8.8,10.7" fill="#ffde00"/><polygon points="17,5 18,7 20,7 18.3,8.3 18.9,10.3 17,9 15.1,10.3 15.7,8.3 14,7 16,7" fill="#ffde00"/><polygon points="20,9 21,11 23,11 21.3,12.3 21.9,14.3 20,13 18.1,14.3 18.7,12.3 17,11 19,11" fill="#ffde00"/><polygon points="19,13 20,15 22,15 20.3,16.3 20.9,18.3 19,17 17.1,18.3 17.7,16.3 16,15 18,15" fill="#ffde00"/><polygon points="17,17 18,19 20,19 18.3,20.3 18.9,22.3 17,21 15.1,22.3 15.7,20.3 14,19 16,19" fill="#ffde00"/></svg>