<svg xmlns="http://www.w3.org/2000/svg" viewBox="0 0 60 38"><rect width="60" height="38" fill="#bf0a30"/><g fill="#fff"><rect y="4" width="60" height="2"/><rect y="8" width="60" height="2"/><rect y="12" width="60" height="2"/><rect y="16" width="60" height="2"/><rect y="20" width="60" height="2"/><rect y="24" width="60" height="2"/><rect y="28" width="60" height="2"/><rect y="32" width="60" height="2"/></g><rect width="26" height="16" fill="#002868"/><g fill="#fff"><circle cx="3" cy="3" r="1"/><circle cx="9" cy="3" r="1"/><circle cx="15" cy="3" r="1"/><circle cx="21" cy="3" r="1"/><circle cx="6" cy="7" r="1"/><circle cx="12" cy="7" r="1"/><circle cx="18" cy="7" r="1"/><circle cx="24" cy="7" r="1"/><circle cx="3" cy="11" r="1"/><circle cx="9" cy="11" r="1"/><circle cx="15" cy="11" r="1"/><circle cx="21" cy="11" r="1"/></g></svg>